<?xml version="1.0" standalone="no"?>
<!DOCTYPE svg PUBLIC "-//W3C//DTD SVG 20010904//EN"
 "http://www.w3.org/TR/2001/REC-SVG-20010904/DTD/svg10.dtd">
<svg version="1.0" xmlns="http://www.w3.org/2000/svg"
 width="880.000000pt" height="880.000000pt" viewBox="0 0 880.000000 880.000000"
 preserveAspectRatio="xMidYMid meet">
<metadata>
Created by potrace 1.11, written by Peter Selinger 2001-2013
</metadata>
<g transform="translate(0.000000,880.000000) scale(0.100000,-0.100000)"
fill="#000000" stroke="none">
<path d="M0 5047 l0 -3242 337 -107 c186 -58 1116 -352 2066 -652 l1728 -546
102 29 c56 17 453 127 882 246 429 119 949 263 1155 321 206 57 859 238 1450
403 l1075 298 3 3247 2 3246 -4400 0 -4400 0 0 -3243z m7930 2749 c-26 -23
-2109 -1606 -2115 -1606 -2 0 -35 21 -72 46 -172 118 -372 183 -708 230 -104
15 -246 18 -1042 21 l-923 4 0 -1140 0 -1140 -52 -40 c-96 -71 -2513 -1773
-2525 -1778 -10 -4 -13 541 -13 2706 l0 2711 3732 0 c3136 0 3730 -2 3718 -14z
m383 -5627 c-5 -4 -946 -268 -2092 -586 l-2084 -579 -766 242 c-1546 488
-2239 707 -2379 751 -117 37 -141 48 -130 59 7 7 274 196 593 421 319 225 811
572 1093 771 282 199 515 362 518 362 2 0 4 -223 4 -496 l0 -495 972 4 c1023
4 1038 5 1278 53 645 129 954 500 927 1114 -12 280 -100 499 -269 670 -96 96
-215 168 -373 224 -16 6 -4 16 66 52 203 105 327 256 389 474 36 125 38 409 4
535 -4 17 39 54 258 220 144 110 652 496 1128 859 l865 658 3 -2653 c1 -1459
-1 -2656 -5 -2660z m-3541 3626 c93 -19 148 -46 203 -96 87 -80 116 -156 116
-297 0 -208 -89 -329 -286 -388 -53 -17 -100 -19 -400 -19 l-340 0 -3 395 c-1
217 0 401 3 407 7 20 616 18 707 -2z m133 -1509 c233 -68 345 -223 345 -476 0
-268 -124 -427 -380 -487 -65 -16 -126 -18 -440 -18 l-365 0 -3 490 c-1 270 0
496 3 503 4 11 77 13 392 9 332 -3 397 -6 448 -21z"/>
</g>
</svg>
