<svg xmlns="http://www.w3.org/2000/svg" xmlns:xlink="http://www.w3.org/1999/xlink" width="674" height="537" viewBox="0 0 674 537">
  <defs>
    <clipPath id="clip-path">
      <rect id="Rectangle_168" data-name="Rectangle 168" width="674" height="537" transform="translate(1066 1928)" fill="#fff" stroke="#707070" stroke-width="1"/>
    </clipPath>
  </defs>
  <g id="Mask_Group_3" data-name="Mask Group 3" transform="translate(-1066 -1928)" clip-path="url(#clip-path)">
    <g id="undraw_code_review_l1q9" transform="translate(1066 1940.651)">
      <path id="Path_209" data-name="Path 209" d="M348.174,465.876C203.1,454.837,30.1,342.431,38.909,226.691S215.272,3.207,360.342,14.247,588.919,241.585,580.111,357.325,493.244,476.916,348.174,465.876Z" transform="translate(-22.086 -13.466)" fill="#f2f2f2"/>
      <ellipse id="Ellipse_135" data-name="Ellipse 135" cx="302.829" cy="18.553" rx="302.829" ry="18.553" transform="translate(35.426 433.895)" fill="#3f3d56"/>
      <ellipse id="Ellipse_136" data-name="Ellipse 136" cx="257.943" cy="12.269" rx="257.943" ry="12.269" transform="translate(80.312 439.88)" opacity="0.1"/>
      <ellipse id="Ellipse_137" data-name="Ellipse 137" cx="126.993" cy="11.072" rx="126.993" ry="11.072" transform="translate(0 489.553)" fill="#3f3d56"/>
      <ellipse id="Ellipse_138" data-name="Ellipse 138" cx="108.17" cy="7.322" rx="108.17" ry="7.322" transform="translate(18.823 493.125)" opacity="0.1"/>
      <rect id="Rectangle_206" data-name="Rectangle 206" width="450.054" height="353.101" transform="translate(117.417 96.953)" fill="#3f3d56"/>
      <path id="Path_210" data-name="Path 210" d="M359.41,158.673H248.382a1.347,1.347,0,1,1,0-2.695H359.41a1.347,1.347,0,0,1,0,2.695Z" transform="translate(-22.086 -13.466)" fill="#f2f2f2"/>
      <path id="Path_211" data-name="Path 211" d="M480.947,173.5H306.321a1.347,1.347,0,0,1,0-2.695H480.947a1.347,1.347,0,0,1,0,2.695Z" transform="translate(-22.086 -13.466)" fill="#f2f2f2"/>
      <path id="Path_212" data-name="Path 212" d="M359.949,188.317H248.921a1.347,1.347,0,1,1,0-2.695H359.949a1.347,1.347,0,1,1,0,2.695Z" transform="translate(-22.086 -13.466)" fill="#f2f2f2"/>
      <path id="Path_213" data-name="Path 213" d="M480.947,188.586H369.92a1.347,1.347,0,0,1,0-2.695H480.947a1.347,1.347,0,0,1,0,2.695Z" transform="translate(-22.086 -13.466)" fill="#f2f2f2"/>
      <path id="Path_214" data-name="Path 214" d="M360.218,203.139H249.19a1.347,1.347,0,1,1,0-2.695H360.218a1.347,1.347,0,1,1,0,2.695Z" transform="translate(-22.086 -13.466)" fill="#f2f2f2"/>
      <path id="Path_215" data-name="Path 215" d="M360.488,217.96H249.46a1.347,1.347,0,0,1,0-2.695H360.488a1.347,1.347,0,1,1,0,2.695Z" transform="translate(-22.086 -13.466)" fill="#f2f2f2"/>
      <path id="Path_216" data-name="Path 216" d="M410.881,158.943h-31.8a1.347,1.347,0,1,1,0-2.695h31.8a1.347,1.347,0,0,1,0,2.695Z" transform="translate(-22.086 -13.466)" fill="#f2f2f2"/>
      <path id="Path_217" data-name="Path 217" d="M410.881,203.139h-31.8a1.347,1.347,0,1,1,0-2.695h31.8a1.347,1.347,0,0,1,0,2.695Z" transform="translate(-22.086 -13.466)" fill="#f2f2f2"/>
      <path id="Path_218" data-name="Path 218" d="M410.881,217.691h-31.8a1.347,1.347,0,0,1,0-2.695h31.8a1.347,1.347,0,0,1,0,2.695Z" transform="translate(-22.086 -13.466)" fill="#f2f2f2"/>
      <path id="Path_219" data-name="Path 219" d="M464.239,217.691h-31.8a1.347,1.347,0,0,1,0-2.695h31.8a1.347,1.347,0,1,1,0,2.695Z" transform="translate(-22.086 -13.466)" fill="#f2f2f2"/>
      <path id="Path_220" data-name="Path 220" d="M279.911,173.5h-31.8a1.347,1.347,0,1,1,0-2.695h31.8a1.347,1.347,0,1,1,0,2.695Z" transform="translate(-22.086 -13.466)" fill="#f2f2f2"/>
      <path id="Path_221" data-name="Path 221" d="M359.544,376.957H248.516a1.347,1.347,0,1,1,0-2.695H359.544a1.347,1.347,0,1,1,0,2.695Z" transform="translate(-22.086 -13.466)" fill="#f2f2f2"/>
      <path id="Path_222" data-name="Path 222" d="M359.005,406.6H247.978a1.347,1.347,0,1,1,0-2.695H359.005a1.347,1.347,0,0,1,0,2.695Z" transform="translate(-22.086 -13.466)" fill="#f2f2f2"/>
      <path id="Path_223" data-name="Path 223" d="M359.275,421.422H248.247a1.347,1.347,0,1,1,0-2.695H359.275a1.347,1.347,0,0,1,0,2.695Z" transform="translate(-22.086 -13.466)" fill="#f2f2f2"/>
      <path id="Path_224" data-name="Path 224" d="M406.7,406.869h-31.8a1.347,1.347,0,0,1,0-2.695h31.8a1.347,1.347,0,1,1,0,2.695Z" transform="translate(-22.086 -13.466)" fill="#f2f2f2"/>
      <path id="Path_225" data-name="Path 225" d="M406.7,421.422h-31.8a1.347,1.347,0,0,1,0-2.695h31.8a1.347,1.347,0,1,1,0,2.695Z" transform="translate(-22.086 -13.466)" fill="#f2f2f2"/>
      <path id="Path_226" data-name="Path 226" d="M460.062,406.869h-31.8a1.347,1.347,0,1,1,0-2.695h31.8a1.347,1.347,0,0,1,0,2.695Z" transform="translate(-22.086 -13.466)" fill="#f2f2f2"/>
      <path id="Path_227" data-name="Path 227" d="M481.082,391.778H306.456a1.347,1.347,0,0,1,0-2.695H481.082a1.347,1.347,0,1,1,0,2.695Z" transform="translate(-22.086 -13.466)" fill="#f2f2f2"/>
      <path id="Path_228" data-name="Path 228" d="M280.046,391.778h-31.8a1.347,1.347,0,1,1,0-2.695h31.8a1.347,1.347,0,1,1,0,2.695Z" transform="translate(-22.086 -13.466)" fill="#f2f2f2"/>
      <path id="Path_229" data-name="Path 229" d="M481.082,436.513H306.456a1.347,1.347,0,0,1,0-2.695H481.082a1.347,1.347,0,1,1,0,2.695Z" transform="translate(-22.086 -13.466)" fill="#f2f2f2"/>
      <path id="Path_230" data-name="Path 230" d="M280.046,436.513h-31.8a1.347,1.347,0,1,1,0-2.695h31.8a1.347,1.347,0,1,1,0,2.695Z" transform="translate(-22.086 -13.466)" fill="#f2f2f2"/>
      <path id="Path_231" data-name="Path 231" d="M310.645,240.067l-43.118,42.579,43.118,42.579,9.7-9.7-32.607-32.608,32.877-32.877Z" fill="#c7a47a"/>
      <path id="Path_232" data-name="Path 232" d="M374.243,240.067l43.118,42.579-43.118,42.579-9.7-9.7,32.608-32.608-32.877-32.877Z" fill="#c7a47a"/>
      <circle id="Ellipse_139" data-name="Ellipse 139" cx="5.386" cy="5.386" r="5.386" transform="translate(124 100.544)" fill="#c7a47a"/>
      <circle id="Ellipse_140" data-name="Ellipse 140" cx="5.386" cy="5.386" r="5.386" transform="translate(138.364 100.544)" fill="#c7a47a"/>
      <circle id="Ellipse_141" data-name="Ellipse 141" cx="5.386" cy="5.386" r="5.386" transform="translate(152.727 100.544)" fill="#c7a47a"/>
      <rect id="Rectangle_207" data-name="Rectangle 207" width="450.054" height="1.795" transform="translate(117.417 114.907)" opacity="0.1"/>
      <path id="Path_233" data-name="Path 233" d="M696.086,377.012c0,38.165-22.689,51.491-50.677,51.491s-50.677-13.326-50.677-51.491,50.677-86.718,50.677-86.718S696.086,338.847,696.086,377.012Z" transform="translate(-22.086 -13.466)" fill="#f2f2f2"/>
      <path id="Path_234" data-name="Path 234" d="M621.477,409.2,622,377.258l21.6-39.516-21.518,34.505.233-14.362L637.2,329.3l-14.824,24.788h0l.42-25.831,15.94-22.761-15.875,18.7.262-47.364-1.648,62.7.135-2.587L605.4,312.136l15.947,29.773-1.51,28.848-.045-.766-18.684-26.106L619.736,372.7l-.189,3.608-.034.054.016.3L615.7,449.846h5.119l.614-37.8L640.013,383.3Z" fill="#3f3d56"/>
      <path id="Path_235" data-name="Path 235" d="M95.472,462.976a25.805,25.805,0,0,1-4.894,2.1c-3.04.83-6.288.526-9.358,1.234-1.257.29-2.625.9-3.025,2.124a4.461,4.461,0,0,0,.331,2.767c3.392,9.947,5.437,20.508,10.847,29.517a44.67,44.67,0,0,0,8.374,10.167,7.984,7.984,0,0,0,4.27,2.367,4.338,4.338,0,0,0,4.411-6.094c-.485-1.078-1.387-1.913-1.968-2.942a11.225,11.225,0,0,1-1.089-4.184c-.535-4.254-1.049-8.7.425-12.727.989-2.7,2.8-5,4.313-7.45s2.766-5.25,2.43-8.106a14.078,14.078,0,0,0-2.184-5.419c-1.006-1.689-3-6.229-5.017-6.793C101.239,458.95,97.3,462.038,95.472,462.976Z" transform="translate(-22.086 -13.466)" fill="#2f2e41"/>
      <path id="Path_236" data-name="Path 236" d="M150.792,497.334a8.39,8.39,0,0,1-.4,2.84c-.633,1.671-2.2,2.816-3.014,4.409-1.128,2.215-.617,4.892.131,7.262a7.442,7.442,0,0,0,2.342,3.952,7.716,7.716,0,0,0,3.563,1.141c10.794,1.494,21.759.637,32.652.95,1.985.057,4.087.127,5.82-.844s2.8-3.409,1.626-5.008c-1.058-1.436-3.151-1.422-4.933-1.507a20.3,20.3,0,0,1-12.516-5.156,9.043,9.043,0,0,1-1.756-2.021,12.422,12.422,0,0,1-.918-2.105,93.843,93.843,0,0,0-5.436-12.041,6.378,6.378,0,0,0-2.338-2.8,6.177,6.177,0,0,0-2.537-.554c-2.715-.176-9.745-1.1-11.844,1.011C149.3,488.816,150.835,494.856,150.792,497.334Z" transform="translate(-22.086 -13.466)" fill="#2f2e41"/>
      <circle id="Ellipse_142" data-name="Ellipse 142" cx="17.341" cy="17.341" r="17.341" transform="translate(128.071 208.117)" fill="#fbbebe"/>
      <path id="Path_237" data-name="Path 237" d="M151.839,253.243a13.035,13.035,0,0,1-5.327,6.841l23.984,4.892a25.408,25.408,0,0,1-.336-10.694,6.165,6.165,0,0,0,.143-2.639c-.451-1.74-2.41-2.578-4.162-2.977-4.377-1-8.248-1.533-12.316-3.466C152.581,247.328,152.755,250.789,151.839,253.243Z" transform="translate(-22.086 -13.466)" fill="#fbbebe"/>
      <path id="Path_238" data-name="Path 238" d="M146.312,253.59a18.755,18.755,0,0,1,16.346.427,37,37,0,0,1,8.122,6.479c2.306,2.224,4.765,4.771,4.929,7.971a22.334,22.334,0,0,1-.649,4.6,15.42,15.42,0,0,0,8.247,15.841c1.905,3.174,2.3,7.019,2.328,10.721.111,14.026-4.314,28.225-1.155,41.891.742,3.209,1.892,6.316,2.533,9.546.83,4.184.789,8.486,1.223,12.729a57.014,57.014,0,0,0,3.06,13.463c-1.044,1.66-3.216,2.3-5.172,2.162a14.609,14.609,0,0,1-5.531-1.877c-8.452-4.325-16.194-10.029-24.949-13.7-5.792-2.432-11.962-3.947-17.581-6.756s-10.844-7.267-12.562-13.309a31.152,31.152,0,0,1-.829-8.081c-.171-11.439-.329-23,2.16-34.169,2.2-9.847,6.428-19.267,7.352-29.314.3-3.27.307-6.771,2.134-9.5C138.9,258.853,144.477,257.854,146.312,253.59Z" transform="translate(-22.086 -13.466)" fill="#2f2e41"/>
      <path id="Path_239" data-name="Path 239" d="M157.635,239.169c1.022-1.333,2.993-1.514,4.625-1.12s3.138,1.236,4.786,1.555a2.8,2.8,0,0,0,2.24-.315,3.258,3.258,0,0,0,.967-2.137,40.794,40.794,0,0,0,.4-10.4,3.08,3.08,0,0,1,.1-1.459c.408-.984,1.653-1.218,2.67-1.533a7.969,7.969,0,0,0,5.394-8.159,3.244,3.244,0,0,0-.992-2.239,4.078,4.078,0,0,0-2.6-.616q-6.992-.056-13.984,0a10.156,10.156,0,0,0-5.033.917,24.453,24.453,0,0,0-2.921,2.461c-2.589,2.089-6.091,2.514-9.241,3.585a9.161,9.161,0,0,0-4.05,2.415,4.267,4.267,0,0,0-.893,4.424,15.708,15.708,0,0,0,1.129,1.738c1.858,2.971.621,6.824.9,10.318.346,4.362,6.8,11.438,11.179,12.47C159.379,252.743,155.3,242.032,157.635,239.169Z" transform="translate(-22.086 -13.466)" fill="#2f2e41"/>
      <path id="Path_240" data-name="Path 240" d="M147.846,430.414a51.753,51.753,0,0,1,.865,9.593c-.213,4.485-1.831,8.806-2.13,13.286-.223,3.346.293,6.728-.171,10.049-.3,2.127-.991,4.176-1.42,6.28a25.971,25.971,0,0,0,4.173,19.909,3.26,3.26,0,0,0,1.211,1.174,3.421,3.421,0,0,0,1.5.2,107.7,107.7,0,0,0,15.064-1.369,1.445,1.445,0,0,0,.967-.427,1.356,1.356,0,0,0,.21-.571c.924-4.749-1.183-9.512-1.719-14.321-.572-5.135.66-10.28,1.883-15.3a67.963,67.963,0,0,1,2.075-7.318c.591-1.614,1.305-3.184,1.817-4.825a36.786,36.786,0,0,0,1.318-7.9q.534-6.329.565-12.687a53.239,53.239,0,0,0-1-11.976c-1.124-4.99-3.426-9.624-5.707-14.2a8.995,8.995,0,0,0-3.362,1.6,75.038,75.038,0,0,1-9.187,5.075c-2.134.992-6.3,1.7-7.652,3.762-1.336,2.038-.474,6.195-.372,8.442Q147.042,424.669,147.846,430.414Z" transform="translate(-22.086 -13.466)" fill="#2f2e41"/>
      <path id="Path_241" data-name="Path 241" d="M147.846,430.414a51.753,51.753,0,0,1,.865,9.593c-.213,4.485-1.831,8.806-2.13,13.286-.223,3.346.293,6.728-.171,10.049-.3,2.127-.991,4.176-1.42,6.28a25.971,25.971,0,0,0,4.173,19.909,3.26,3.26,0,0,0,1.211,1.174,3.421,3.421,0,0,0,1.5.2,107.7,107.7,0,0,0,15.064-1.369,1.445,1.445,0,0,0,.967-.427,1.356,1.356,0,0,0,.21-.571c.924-4.749-1.183-9.512-1.719-14.321-.572-5.135.66-10.28,1.883-15.3a67.963,67.963,0,0,1,2.075-7.318c.591-1.614,1.305-3.184,1.817-4.825a36.786,36.786,0,0,0,1.318-7.9q.534-6.329.565-12.687a53.239,53.239,0,0,0-1-11.976c-1.124-4.99-3.426-9.624-5.707-14.2a8.995,8.995,0,0,0-3.362,1.6,75.038,75.038,0,0,1-9.187,5.075c-2.134.992-6.3,1.7-7.652,3.762-1.336,2.038-.474,6.195-.372,8.442Q147.042,424.669,147.846,430.414Z" transform="translate(-22.086 -13.466)" opacity="0.1"/>
      <path id="Path_242" data-name="Path 242" d="M124.4,362.388c-2.3,6.2,1.082,12.9,4.023,18.823,7.245,14.595,12.276,30.168,17.281,45.674a5.6,5.6,0,0,1,.332,3.575,4.684,4.684,0,0,1-1.689,2c-3.45,2.621-7.844,3.554-11.954,4.925a53.974,53.974,0,0,0-11.337,5.314c-2.978,1.846-5.769,3.976-8.553,6.1l-8.865,6.77a5.928,5.928,0,0,0-1.482,1.434c-.855,1.341-.5,3.092-.079,4.625a78.661,78.661,0,0,0,4.34,11.845,4.136,4.136,0,0,0,1.574,2.063c1.384.744,3.076-.242,4.133-1.4s1.97-2.609,3.46-3.108,3.125.105,4.679-.113c2.513-.353,4.181-2.668,5.992-4.445,7.4-7.26,19.756-6.734,27.9-13.153a35.443,35.443,0,0,1,3.729-2.913c1.376-.813,2.937-1.26,4.365-1.979,4.343-2.187,7.073-6.708,8.536-11.345s1.88-9.532,2.931-14.28a62.09,62.09,0,0,0,1.5-7.384,39.553,39.553,0,0,0-.151-6.982L172.124,372.1c-.239-2.958-.479-5.92-.943-8.852-8.724.312-17.441.663-26.17.766C138.065,364.1,130.992,364.583,124.4,362.388Z" transform="translate(-22.086 -13.466)" fill="#2f2e41"/>
      <path id="Path_243" data-name="Path 243" d="M121.195,370.888c1.183,1.9,4.064,1.864,6.047.82s3.524-2.8,5.512-3.831c2.672-1.39,5.833-1.338,8.843-1.253,4.766.135,9.591.278,14.176,1.584,4.743,1.351,9.36,3.952,14.264,3.433a2.934,2.934,0,0,0,2.251-1.057,3.318,3.318,0,0,0,.371-1.7l.16-4.284a3.869,3.869,0,0,0-.341-2.17,3.639,3.639,0,0,0-1.625-1.245c-6.98-3.379-14.941-4.008-22.691-4.274q-5.91-.2-11.824-.167c-3.346.02-7.363-.464-10.616.43C121.355,358.379,118.98,367.326,121.195,370.888Z" transform="translate(-22.086 -13.466)" fill="#2f2e41"/>
      <path id="Path_244" data-name="Path 244" d="M165.025,258.677c-9.146-.081-17.434-6.118-26.579-6.265a6.892,6.892,0,0,0-3.227.557,12.015,12.015,0,0,0-3.08,2.931c-2.7,2.928-6.62,4.492-9.4,7.35-2.6,2.68-4.053,6.673-3.025,10.266s4.91,6.349,8.546,5.485a22.025,22.025,0,0,1,8.58-11.658,43.622,43.622,0,0,1,6.706-3.52c4.11-1.862,8.706-3.76,13-2.364a18.336,18.336,0,0,1,4.434,2.418l7.154,4.806C167.3,265.394,166.55,261.707,165.025,258.677Z" transform="translate(-22.086 -13.466)" fill="#c7a47a"/>
      <path id="Path_245" data-name="Path 245" d="M127.208,275.822c-1.214,1.515.535,3.71.267,5.634-.178,1.278-1.229,2.254-1.667,3.467-.454,1.257-.213,2.649-.385,3.975a17.048,17.048,0,0,1-.763,2.831,50.856,50.856,0,0,0-1.608,8.394l-1.6,11.955a45.294,45.294,0,0,0-.506,5.433,16.223,16.223,0,0,1-.271,4.062,30,30,0,0,1-1.667,3.7,4.331,4.331,0,0,0-.059,3.9,6.825,6.825,0,0,0-1.429,8.519,4.727,4.727,0,0,1,.736,1.356,3.483,3.483,0,0,1-.324,2l-1.619,4.313c-.414,1.1-.545,2.785.607,3.037a10.178,10.178,0,0,0-2.185,3.451,4.109,4.109,0,0,0,.582,3.893,4.962,4.962,0,0,1,1.014,1.231,3.275,3.275,0,0,1-.117,1.941,7.125,7.125,0,0,0,.882,5.586,5.01,5.01,0,0,0,5.038,2.16c3.238-.73,6.148-1.883,9.413-1.284a168.158,168.158,0,0,1,20.891,4.759c7.771,2.481,15.295,6.119,23.416,6.883a2.273,2.273,0,0,0,1.566-.244,2.352,2.352,0,0,0,.724-1.489l2.51-11.769a121.108,121.108,0,0,0,2.307-13.183c.286-2.861.367-5.739.448-8.613l.647-22.88a22.86,22.86,0,0,0-1.317-9.946l-3.721-11.879c-2.123-6.779-6.995-12.79-8.729-19.679-1.1-4.36-1.909-9.039-4.852-12.437-4.2-4.845-11.458-5.6-17.813-4.765a21.281,21.281,0,0,0-8.25,2.515c-2.872,1.722-4.987,4.434-7.034,7.084C130.65,271.913,128.933,273.669,127.208,275.822Z" transform="translate(-22.086 -13.466)" fill="#c7a47a"/>
      <path id="Path_246" data-name="Path 246" d="M142.047,343.12c.524,2.258,1.623,4.34,2.3,6.557,1.128,3.716,1.032,7.718,2.158,11.434.472,1.56,1.157,3.058,1.5,4.652.791,3.717-.364,7.562-1.8,11.081s-3.18,6.989-3.645,10.76c-.328,2.656.143,5.656,2.191,7.38,2.126,1.79,5.215,1.668,7.983,1.43a8.388,8.388,0,0,0,2.9-.6c2.117-1,3.009-3.507,3.5-5.8,1.659-7.672,1.185-15.624.7-23.458l-1.26-20.488a47.954,47.954,0,0,0-1.718-11.758c-.442-1.378-1.213-4.162-2.471-5.041s-4.806-.91-6.349-.983C140.792,327.947,140.873,338.053,142.047,343.12Z" transform="translate(-22.086 -13.466)" fill="#fbbebe"/>
      <path id="Path_247" data-name="Path 247" d="M150.069,267.473a4.984,4.984,0,0,0-4.771.422,14.7,14.7,0,0,0-3.574,3.47c-3.2,3.9-6.578,8.375-6.1,13.4a33.969,33.969,0,0,0,1.387,5.489c2.142,8.007-.227,16.476.045,24.761a77.528,77.528,0,0,0,2.236,14.172c.212.954.551,2.059,1.474,2.38a3.2,3.2,0,0,0,2.129-.33,16.979,16.979,0,0,1,15.538,1.958c1.715-.915,1.072-3.808.688-5.713-1.142-5.66.408-11.5,2.291-16.958s4.136-10.91,4.448-16.676c.353-6.533-1.813-12.91-3.95-19.093a6.14,6.14,0,0,0-5.172-5.12A35.672,35.672,0,0,1,150.069,267.473Z" transform="translate(-22.086 -13.466)" fill="#2f2e41"/>
    </g>
  </g>
</svg>
