<svg xmlns="http://www.w3.org/2000/svg" width="158.071" height="107.72" viewBox="0 0 158.071 107.72">
  <g id="undraw_start_building_vqhd" transform="translate(0 0)">
    <path id="Path_473" data-name="Path 473" d="M483.779,216.461c-1.284,4.746-5.682,7.685-5.682,7.685s-2.316-4.756-1.032-9.5,5.682-7.685,5.682-7.685S485.063,211.715,483.779,216.461Z" transform="translate(-416.531 -190.326)" fill="#c7a47a"/>
    <path id="Path_474" data-name="Path 474" d="M444.642,216.461c1.284,4.746,5.682,7.685,5.682,7.685s2.316-4.756,1.032-9.5-5.682-7.685-5.682-7.685S443.358,211.715,444.642,216.461Z" transform="translate(-389.074 -190.326)" fill="#c7a47a"/>
    <path id="Path_475" data-name="Path 475" d="M410.424,241.779c3.523,3.43,3.953,8.7,3.953,8.7s-5.282-.288-8.8-3.718-3.953-8.7-3.953-8.7S406.9,238.349,410.424,241.779Z" transform="translate(-352.97 -216.663)" fill="#3f3d56"/>
    <path id="Path_476" data-name="Path 476" d="M488.866,241.779c-3.523,3.43-3.953,8.7-3.953,8.7s5.282-.288,8.8-3.718,3.953-8.7,3.953-8.7S492.389,238.349,488.866,241.779Z" transform="translate(-423.505 -216.663)" fill="#3f3d56"/>
    <path id="Path_477" data-name="Path 477" d="M1061.374,692.367a9.811,9.811,0,0,0,3.654,4.943,8.447,8.447,0,0,0-2.99-11.054A9.81,9.81,0,0,0,1061.374,692.367Z" transform="translate(-911.458 -596.209)" fill="#c7a47a"/>
    <path id="Path_478" data-name="Path 478" d="M1039.366,708.649a9.81,9.81,0,0,1,2.542,5.6,8.447,8.447,0,0,1-8.205-7.987A9.811,9.811,0,0,1,1039.366,708.649Z" transform="translate(-888.238 -613.147)" fill="#3f3d56"/>
    <path id="Path_479" data-name="Path 479" d="M199.594,310.406v68.581H287V310.406Zm57.38,34.751a15.585,15.585,0,0,1-.111,1.854l-.381-.046a14.946,14.946,0,0,1-.325,1.782l.373.091a15.327,15.327,0,0,1-.552,1.776l-.359-.136a14.931,14.931,0,0,1-.745,1.652l.34.179a15.426,15.426,0,0,1-.963,1.59l-.316-.218a15.072,15.072,0,0,1-1.118,1.426l.287.255a15.5,15.5,0,0,1-1.313,1.314l-.255-.287a15.06,15.06,0,0,1-1.425,1.118l.218.316a15.444,15.444,0,0,1-1.588.963l-.179-.34a14.935,14.935,0,0,1-1.651.745l.136.359a15.311,15.311,0,0,1-1.774.553l-.092-.373a14.942,14.942,0,0,1-1.782.326l.046.381a15.606,15.606,0,0,1-1.854.111v-.383h-.007a15.143,15.143,0,0,1-1.8-.108l-.046.381a15.469,15.469,0,0,1-1.828-.332l.091-.373a14.889,14.889,0,0,1-1.731-.538l-.136.359a15.339,15.339,0,0,1-1.7-.763l.179-.34a15,15,0,0,1-1.55-.938l-.218.316a15.54,15.54,0,0,1-1.463-1.146l.255-.288a15.107,15.107,0,0,1-1.282-1.28l-.287.255a15.518,15.518,0,0,1-1.147-1.461l.316-.219a15,15,0,0,1-.939-1.548l-.34.179a15.372,15.372,0,0,1-.765-1.694l.359-.136a14.9,14.9,0,0,1-.54-1.729l-.373.092a15.38,15.38,0,0,1-.335-1.828l.381-.046a15.151,15.151,0,0,1-.11-1.815l-.383.007v-.02a15.553,15.553,0,0,1,.108-1.83l.382.042a14.946,14.946,0,0,1,.323-1.783l-.373-.091a15.316,15.316,0,0,1,.551-1.776l.359.136a14.928,14.928,0,0,1,.743-1.653l-.34-.178a15.45,15.45,0,0,1,.961-1.591l.316.218a15.071,15.071,0,0,1,1.117-1.427l-.288-.254a15.526,15.526,0,0,1,1.312-1.315l.255.287a15.065,15.065,0,0,1,1.424-1.12l-.219-.316a15.451,15.451,0,0,1,1.587-.964l.179.34a14.94,14.94,0,0,1,1.651-.747l-.137-.359a15.282,15.282,0,0,1,1.774-.555l.092.373a14.952,14.952,0,0,1,1.782-.327l-.046-.381a15.555,15.555,0,0,1,1.854-.113v.383h.022a15.155,15.155,0,0,1,1.786.106l.045-.381a15.422,15.422,0,0,1,1.828.33l-.091.373a14.883,14.883,0,0,1,1.732.536l.136-.359a15.322,15.322,0,0,1,1.7.761l-.178.34a15,15,0,0,1,1.551.936l.218-.316a15.575,15.575,0,0,1,1.464,1.144l-.254.288a15.1,15.1,0,0,1,1.283,1.279l.287-.255a15.54,15.54,0,0,1,1.149,1.459l-.316.219a15.006,15.006,0,0,1,.941,1.547l.34-.179a15.368,15.368,0,0,1,.767,1.693l-.359.137a14.89,14.89,0,0,1,.542,1.729l.373-.092a15.4,15.4,0,0,1,.336,1.827l-.381.046a15.14,15.14,0,0,1,.112,1.808h.383Z" transform="translate(-181.888 -277.928)" fill="#3f3d56"/>
    <circle id="Ellipse_178" data-name="Ellipse 178" cx="1.532" cy="1.532" r="1.532" transform="translate(20.065 34.419)" fill="#c7a47a"/>
    <circle id="Ellipse_179" data-name="Ellipse 179" cx="1.532" cy="1.532" r="1.532" transform="translate(24.814 34.419)" fill="#c7a47a"/>
    <circle id="Ellipse_180" data-name="Ellipse 180" cx="1.532" cy="1.532" r="1.532" transform="translate(29.562 34.419)" fill="#c7a47a"/>
    <rect id="Rectangle_281" data-name="Rectangle 281" width="79.342" height="0.306" transform="translate(21.597 39.167)" fill="#e6e6e6"/>
    <rect id="Rectangle_282" data-name="Rectangle 282" width="30.481" height="0.306" transform="translate(44.266 88.334)" fill="#e6e6e6"/>
    <rect id="Rectangle_283" data-name="Rectangle 283" width="30.481" height="0.306" transform="translate(44.266 91.551)" fill="#e6e6e6"/>
    <rect id="Rectangle_284" data-name="Rectangle 284" width="30.481" height="0.306" transform="translate(44.266 94.768)" fill="#e6e6e6"/>
    <rect id="Rectangle_285" data-name="Rectangle 285" width="158.071" height="0.306" transform="translate(0 100.894)" fill="#3f3d56"/>
    <path id="Path_480" data-name="Path 480" d="M819.129,295.848h0c-3.021,0-5.469,2.717-5.469,6.07v4.259h1.31l.758-1.578-.19,1.578h8.419l.689-1.435-.172,1.435h.948v-3.344C825.422,298.975,822.6,295.848,819.129,295.848Z" transform="translate(-701.898 -265.6)" fill="#2f2e41"/>
    <path id="Path_481" data-name="Path 481" d="M765.634,614.389l2.5,6.713,3.028,1.579-2.369-8.293Z" transform="translate(-648.362 -520.283)" fill="#ffb8b8"/>
    <path id="Path_482" data-name="Path 482" d="M855.871,610.549l3.817,7.766,1.975-1.185-2.9-7.9Z" transform="translate(-724.777 -515.917)" fill="#ffb8b8"/>
    <circle id="Ellipse_181" data-name="Ellipse 181" cx="3.686" cy="3.686" r="3.686" transform="translate(112.665 31.975)" fill="#ffb8b8"/>
    <path id="Path_483" data-name="Path 483" d="M840.181,342.084s1.316,3.422.526,4.344,5-1.448,5-1.448-2.5-3.028-2.369-4.344Z" transform="translate(-724.357 -303.528)" fill="#ffb8b8"/>
    <path id="Path_484" data-name="Path 484" d="M761.742,294.111l1.975-.395,1.974-2.369s.921-3.291,2.106-4.212v-.395s-6.055-3.949-7.9-3.817c0,0-6.187,1.843-5,0a3.9,3.9,0,0,1,1.557-1.26,7.642,7.642,0,0,1,6.053-.3l8.581,3.139a3.413,3.413,0,0,1-.132,2.9c-.79,1.58-3.554,9.741-3.554,9.741a36.53,36.53,0,0,0-1.711,4.081c-.658,1.975-1.185,3.291-1.185,3.291l-11.189-.132.921-4.081s-.921-1.711-2.238-1.843c0,0-9.478-3.686-9.872-5.923a1.327,1.327,0,0,1,.395-1.185c.527-.395,6.45-6.845,6.45-6.845s2.633-3.422,3.949-2.369-2.369,3.686-2.369,3.686-3.817,5.792-4.344,6.187a36.242,36.242,0,0,0,4.739,2.5c1.053.263,3.554,0,4.739,1.053a4.148,4.148,0,0,0,3.159-.395A7.933,7.933,0,0,1,761.742,294.111Z" transform="translate(-641.311 -252.922)" fill="#ffb8b8"/>
    <path id="Path_485" data-name="Path 485" d="M782.563,364.56l-1.975,5.265s-1.711,1.58-1.053,5.265c0,0,.263,3.422-.527,4.476s-11.715,13.032-1.316,38.305c0,0,6.977-1.316,12.242.921s13.953-2.369,13.953-2.369l-13.69-33.7s-.395-6.977,1.843-10.136l-1.448-1.185s-1.711-4.212-1.448-5.529a16.184,16.184,0,0,1,.79-2.9h-1.053l-1.448,3.422s-2.369,4.475-4.344,4.081-.395-3.159-.395-3.159l.658-2.633Z" transform="translate(-667.66 -322.449)" fill="#2f2e41"/>
    <path id="Path_486" data-name="Path 486" d="M849.527,753.98s-2.99-1.223-3.206-.875-1.269,2.454-1.269,2.454-4.081,4.212-.79,4.739,3.686-1.316,3.686-1.316.132-.132.658-.132,2.633-.79,2.5-1.185S849.527,753.98,849.527,753.98Z" transform="translate(-726.727 -652.766)" fill="#2f2e41"/>
    <path id="Path_487" data-name="Path 487" d="M959.328,753.146s-2.764.658-2.9,1.185-1.053,4.081-.263,4.344a6.468,6.468,0,0,0,2.369.526c.395-.132,1.316,1.711,3.291,1.316s2.9-.658,2.764-.79-.658-2.106-2.238-2.9S959.328,753.146,959.328,753.146Z" transform="translate(-822.311 -652.853)" fill="#2f2e41"/>
    <path id="Path_488" data-name="Path 488" d="M825.686,300.379a2.868,2.868,0,0,0-2.263-1.155h-.107a3.984,3.984,0,0,0-3.749,4.184h.694l.112-.853.164.853h4.114l.345-.721-.086.721h.809a6.775,6.775,0,0,1-1.628,5.627h1.379l.689-1.443-.172,1.443h2.628l.517-3.319A5.609,5.609,0,0,0,825.686,300.379Z" transform="translate(-706.9 -268.458)" fill="#2f2e41"/>
    <path id="Path_489" data-name="Path 489" d="M744.257,113.725c0-.012,0-.024,0-.037a15.165,15.165,0,0,0-.1-1.764l.438-.053a15.4,15.4,0,0,0-.336-1.827l-.42.1a14.9,14.9,0,0,0-.53-1.727l.395-.15a15.377,15.377,0,0,0-.767-1.693l-.364.192a15,15,0,0,0-.93-1.551l.329-.228a15.521,15.521,0,0,0-1.149-1.46l-.291.259a15.106,15.106,0,0,0-1.275-1.287l.251-.284a15.54,15.54,0,0,0-1.464-1.145l-.208.3a15,15,0,0,0-1.548-.947l.165-.316a15.39,15.39,0,0,0-1.7-.761l-.122.324a14.891,14.891,0,0,0-1.734-.547l.08-.326a15.374,15.374,0,0,0-1.828-.33l-.038.324a15.15,15.15,0,0,0-1.815-.114v-.318a15.593,15.593,0,0,0-1.854.113l.037.309a14.948,14.948,0,0,0-1.792.322l-.073-.3a15.336,15.336,0,0,0-1.773.555l.107.28a14.916,14.916,0,0,0-1.662.747l-.138-.261a15.441,15.441,0,0,0-1.587.964l.167.24a15.071,15.071,0,0,0-1.433,1.125l-.193-.218a15.54,15.54,0,0,0-1.312,1.315l.218.193a15.066,15.066,0,0,0-1.123,1.436l-.241-.166a15.433,15.433,0,0,0-.961,1.591l.261.137a14.927,14.927,0,0,0-.744,1.664l-.28-.106a15.325,15.325,0,0,0-.551,1.776l.3.072a14.944,14.944,0,0,0-.318,1.793l-.309-.037a15.655,15.655,0,0,0-.109,1.839v.015l.318-.006a15.14,15.14,0,0,0,.118,1.821l-.323.039a15.4,15.4,0,0,0,.334,1.828l.326-.08a14.9,14.9,0,0,0,.551,1.731l-.323.123a15.374,15.374,0,0,0,.765,1.693l.316-.166a14.99,14.99,0,0,0,.95,1.545l-.3.209a15.554,15.554,0,0,0,1.147,1.461l.283-.251a15.1,15.1,0,0,0,1.29,1.272l-.258.292a15.5,15.5,0,0,0,1.463,1.146l.228-.33a15,15,0,0,0,1.554.927l-.191.364a15.383,15.383,0,0,0,1.7.763l.15-.395a14.893,14.893,0,0,0,1.729.526l-.1.42a15.379,15.379,0,0,0,1.828.332l.052-.439a15.161,15.161,0,0,0,1.728.1h.073v.45a15.612,15.612,0,0,0,1.854-.112l-.055-.453a14.933,14.933,0,0,0,1.772-.33l.111.45a15.343,15.343,0,0,0,1.774-.553l-.167-.438a14.923,14.923,0,0,0,1.64-.744l.22.419a15.439,15.439,0,0,0,1.588-.963l-.271-.391a15.063,15.063,0,0,0,1.415-1.112l.316.357a15.534,15.534,0,0,0,1.313-1.314l-.357-.316a15.067,15.067,0,0,0,1.112-1.416l.391.27a15.469,15.469,0,0,0,.963-1.59l-.419-.22a14.938,14.938,0,0,0,.744-1.641l.439.166a15.354,15.354,0,0,0,.552-1.775l-.45-.111a14.933,14.933,0,0,0,.33-1.772l.453.055a15.62,15.62,0,0,0,.111-1.854v-.029Z" transform="translate(-617.442 -98.365)" fill="#3f3d56"/>
  </g>
</svg>
