<svg xmlns="http://www.w3.org/2000/svg" xmlns:xlink="http://www.w3.org/1999/xlink" width="674" height="537" viewBox="0 0 674 537">
  <defs>
    <clipPath id="clip-path">
      <rect id="Rectangle_167" data-name="Rectangle 167" width="674" height="537" transform="translate(187 1140)" fill="#fff" stroke="#707070" stroke-width="1"/>
    </clipPath>
  </defs>
  <g id="Mask_Group_2" data-name="Mask Group 2" transform="translate(-187 -1140)" clip-path="url(#clip-path)">
    <g id="undraw_experience_design_eq3j" transform="translate(187 1180.186)">
      <circle id="Ellipse_104" data-name="Ellipse 104" cx="50.347" cy="50.347" r="50.347" transform="translate(406.367 182.981)" fill="#c7a47a" opacity="0.4"/>
      <rect id="Rectangle_169" data-name="Rectangle 169" width="280.752" height="76.092" transform="translate(177.11 302.991)" fill="#3f3d56"/>
      <path id="Path_193" data-name="Path 193" d="M496.459,181.359l-11.21,5.306,9.922-7.419a55.994,55.994,0,0,0-5.417-7.129L441.135,184.2l43.916-16.752a55.975,55.975,0,0,0-6.377-4.861l-74.082,11.933a55.52,55.52,0,0,0-12.16,34.648H503.946a55.49,55.49,0,0,0-7.487-27.81Z" transform="translate(-56.578 -66.889)" fill="#f2f2f2"/>
      <path id="Path_194" data-name="Path 194" d="M505.338,99.815a326.893,326.893,0,0,0-394.125,84.72C213.823,162.052,392.476,123.133,505.338,99.815Z" transform="translate(-56.578 -66.889)" fill="#f2f2f2"/>
      <rect id="Rectangle_170" data-name="Rectangle 170" width="669.083" height="1.312" transform="translate(0 455.174)" fill="#2f2e41"/>
      <path id="Path_195" data-name="Path 195" d="M447.444,209.169l-37.957-56.38s57.483,20.068,50.959,56.38Z" transform="translate(-56.578 -66.889)" fill="#3f3d56"/>
      <path id="Path_196" data-name="Path 196" d="M448.934,209.169l37.957-56.38s-57.483,20.068-50.959,56.38Z" transform="translate(-56.578 -66.889)" fill="#c7a47a"/>
      <path id="Path_197" data-name="Path 197" d="M514.769,523.375H233.36V103.559H514.769Zm-280.1-1.312H513.457V104.871H234.672Z" transform="translate(-56.578 -66.889)" fill="#2f2e41"/>
      <rect id="Rectangle_171" data-name="Rectangle 171" width="280.096" height="1.312" transform="translate(177.766 46.628)" fill="#2f2e41"/>
      <circle id="Ellipse_105" data-name="Ellipse 105" cx="2.624" cy="2.624" r="2.624" transform="translate(182.358 39.293)" fill="#c7a47a"/>
      <circle id="Ellipse_106" data-name="Ellipse 106" cx="2.624" cy="2.624" r="2.624" transform="translate(189.574 39.293)" fill="#c7a47a"/>
      <circle id="Ellipse_107" data-name="Ellipse 107" cx="2.624" cy="2.624" r="2.624" transform="translate(196.789 39.293)" fill="#c7a47a"/>
      <rect id="Rectangle_172" data-name="Rectangle 172" width="11.807" height="6.56" transform="translate(187.606 55.693)" fill="#c7a47a"/>
      <rect id="Rectangle_173" data-name="Rectangle 173" width="57.725" height="6.56" transform="translate(187.606 107.514)" fill="#c7a47a"/>
      <rect id="Rectangle_174" data-name="Rectangle 174" width="57.725" height="6.56" transform="translate(450.647 62.252) rotate(180)" fill="#f2f2f2"/>
      <rect id="Rectangle_175" data-name="Rectangle 175" width="97.083" height="3.936" transform="translate(187.606 118.665)" fill="#f2f2f2"/>
      <rect id="Rectangle_176" data-name="Rectangle 176" width="91.835" height="3.936" transform="translate(187.606 127.193)" fill="#f2f2f2"/>
      <rect id="Rectangle_177" data-name="Rectangle 177" width="66.908" height="3.936" transform="translate(187.606 135.72)" fill="#f2f2f2"/>
      <rect id="Rectangle_178" data-name="Rectangle 178" width="38.046" height="3.936" transform="translate(209.908 252.482)" fill="#f2f2f2"/>
      <rect id="Rectangle_179" data-name="Rectangle 179" width="35.989" height="3.936" transform="translate(209.908 261.009)" fill="#f2f2f2"/>
      <rect id="Rectangle_180" data-name="Rectangle 180" width="26.221" height="3.936" transform="translate(209.908 269.537)" fill="#f2f2f2"/>
      <rect id="Rectangle_181" data-name="Rectangle 181" width="38.046" height="3.936" transform="translate(298.464 252.482)" fill="#f2f2f2"/>
      <rect id="Rectangle_182" data-name="Rectangle 182" width="35.989" height="3.936" transform="translate(298.464 261.009)" fill="#f2f2f2"/>
      <rect id="Rectangle_183" data-name="Rectangle 183" width="26.221" height="3.936" transform="translate(298.464 269.537)" fill="#f2f2f2"/>
      <rect id="Rectangle_184" data-name="Rectangle 184" width="38.046" height="3.936" transform="translate(390.298 252.482)" fill="#f2f2f2"/>
      <rect id="Rectangle_185" data-name="Rectangle 185" width="35.989" height="3.936" transform="translate(390.298 261.009)" fill="#f2f2f2"/>
      <rect id="Rectangle_186" data-name="Rectangle 186" width="26.221" height="3.936" transform="translate(390.298 269.537)" fill="#f2f2f2"/>
      <rect id="Rectangle_187" data-name="Rectangle 187" width="57.725" height="6.56" transform="translate(268.945 401.385)" fill="#c7a47a"/>
      <rect id="Rectangle_188" data-name="Rectangle 188" width="97.083" height="3.936" transform="translate(268.945 412.537)" fill="#f2f2f2"/>
      <rect id="Rectangle_189" data-name="Rectangle 189" width="91.835" height="3.936" transform="translate(268.945 421.064)" fill="#f2f2f2"/>
      <rect id="Rectangle_190" data-name="Rectangle 190" width="66.908" height="3.936" transform="translate(268.945 429.592)" fill="#f2f2f2"/>
      <rect id="Rectangle_191" data-name="Rectangle 191" width="228.275" height="1.312" transform="translate(204.989 178.358)" fill="#c7a47a" opacity="0.3"/>
      <rect id="Rectangle_192" data-name="Rectangle 192" width="48.541" height="43.294" transform="translate(204.661 201.317)" fill="#c7a47a" opacity="0.3"/>
      <rect id="Rectangle_193" data-name="Rectangle 193" width="48.541" height="43.294" transform="translate(293.216 201.317)" fill="#3f3d56"/>
      <rect id="Rectangle_194" data-name="Rectangle 194" width="48.541" height="43.294" transform="translate(385.051 201.317)" fill="#3f3d56"/>
      <path id="Path_198" data-name="Path 198" d="M367.74,311.317l-.64-.013c.014-.709.414-17.423,6.994-22.043l.368.524C368.147,294.219,367.743,311.147,367.74,311.317Z" transform="translate(-56.578 -66.889)" fill="#c7a47a"/>
      <circle id="Ellipse_108" data-name="Ellipse 108" cx="3.202" cy="3.202" r="3.202" transform="translate(317.7 215.757)" fill="#c7a47a"/>
      <path id="Path_199" data-name="Path 199" d="M376.832,297.154a9.969,9.969,0,0,1-5.144.222,9.085,9.085,0,0,1,9.341-3.2,9.969,9.969,0,0,1-4.2,2.982Z" transform="translate(-56.578 -66.889)" fill="#c7a47a"/>
      <path id="Path_200" data-name="Path 200" d="M459.575,311.317l-.64-.013c.014-.709.414-17.423,6.994-22.043l.368.524C459.982,294.219,459.578,311.147,459.575,311.317Z" transform="translate(-56.578 -66.889)" fill="#c7a47a"/>
      <circle id="Ellipse_109" data-name="Ellipse 109" cx="3.202" cy="3.202" r="3.202" transform="translate(409.534 215.757)" fill="#c7a47a"/>
      <path id="Path_201" data-name="Path 201" d="M468.667,297.154a9.969,9.969,0,0,1-5.144.222,9.085,9.085,0,0,1,9.341-3.2A9.969,9.969,0,0,1,468.667,297.154Z" transform="translate(-56.578 -66.889)" fill="#c7a47a"/>
      <rect id="Rectangle_195" data-name="Rectangle 195" width="57.725" height="6.56" transform="translate(187.606 327.262)" fill="#c7a47a"/>
      <rect id="Rectangle_196" data-name="Rectangle 196" width="97.083" height="3.936" transform="translate(187.606 338.413)" fill="#f2f2f2"/>
      <rect id="Rectangle_197" data-name="Rectangle 197" width="91.835" height="3.936" transform="translate(187.606 346.94)" fill="#f2f2f2"/>
      <rect id="Rectangle_198" data-name="Rectangle 198" width="66.908" height="3.936" transform="translate(187.606 355.468)" fill="#f2f2f2"/>
      <circle id="Ellipse_110" data-name="Ellipse 110" cx="20.497" cy="20.497" r="20.497" transform="translate(380.79 315.816)" fill="#c7a47a" opacity="0.4"/>
      <circle id="Ellipse_111" data-name="Ellipse 111" cx="14.379" cy="14.379" r="14.379" transform="translate(348.973 331.725)" fill="#c7a47a" opacity="0.4"/>
      <circle id="Ellipse_112" data-name="Ellipse 112" cx="51.821" cy="51.821" r="51.821" transform="translate(58.053 330.213)" fill="#2f2e41"/>
      <rect id="Rectangle_199" data-name="Rectangle 199" width="15.743" height="28.206" transform="translate(86.259 422.704)" fill="#2f2e41"/>
      <rect id="Rectangle_200" data-name="Rectangle 200" width="15.743" height="28.206" transform="translate(117.745 422.704)" fill="#2f2e41"/>
      <ellipse id="Ellipse_113" data-name="Ellipse 113" cx="13.119" cy="4.92" rx="13.119" ry="4.92" transform="translate(86.259 446.319)" fill="#2f2e41"/>
      <ellipse id="Ellipse_114" data-name="Ellipse 114" cx="13.119" cy="4.92" rx="13.119" ry="4.92" transform="translate(117.745 445.663)" fill="#2f2e41"/>
      <circle id="Ellipse_115" data-name="Ellipse 115" cx="17.711" cy="17.711" r="17.711" transform="translate(93.475 351.204)" fill="#fff"/>
      <circle id="Ellipse_116" data-name="Ellipse 116" cx="5.904" cy="5.904" r="5.904" transform="translate(105.282 355.14)" fill="#3f3d56"/>
      <path id="Path_202" data-name="Path 202" d="M116.184,400.731c-4.184-18.739,9.191-37.675,29.875-42.293s40.844,6.829,45.028,25.568-9.524,25.651-30.208,30.269S120.368,419.471,116.184,400.731Z" transform="translate(-56.578 -66.889)" fill="#c7a47a"/>
      <ellipse id="Ellipse_117" data-name="Ellipse 117" cx="25.91" cy="8.134" rx="25.91" ry="8.134" transform="translate(130.788 344.763) rotate(-65.077)" fill="#2f2e41"/>
      <ellipse id="Ellipse_118" data-name="Ellipse 118" cx="8.134" cy="25.911" rx="8.134" ry="25.911" transform="translate(34.661 321.341) rotate(-27.893)" fill="#2f2e41"/>
      <ellipse id="Ellipse_119" data-name="Ellipse 119" cx="8.134" cy="25.911" rx="8.134" ry="25.911" transform="matrix(0.933, -0.36, 0.36, 0.933, 520.983, 322.248)" fill="#2f2e41"/>
      <circle id="Ellipse_120" data-name="Ellipse 120" cx="51.821" cy="51.821" r="51.821" transform="translate(534.079 330.674)" fill="#2f2e41"/>
      <rect id="Rectangle_201" data-name="Rectangle 201" width="15.743" height="28.207" transform="translate(609.705 451.302) rotate(179.84)" fill="#2f2e41"/>
      <rect id="Rectangle_202" data-name="Rectangle 202" width="15.743" height="28.207" transform="translate(578.219 451.39) rotate(179.84)" fill="#2f2e41"/>
      <ellipse id="Ellipse_121" data-name="Ellipse 121" cx="13.119" cy="4.92" rx="13.119" ry="4.92" transform="translate(583.458 446.789) rotate(-0.16)" fill="#2f2e41"/>
      <ellipse id="Ellipse_122" data-name="Ellipse 122" cx="13.119" cy="4.92" rx="13.119" ry="4.92" transform="translate(551.97 446.221) rotate(-0.16)" fill="#2f2e41"/>
      <circle id="Ellipse_123" data-name="Ellipse 123" cx="17.711" cy="17.711" r="17.711" transform="translate(566.84 351.668)" fill="#fff"/>
      <circle id="Ellipse_124" data-name="Ellipse 124" cx="5.904" cy="5.904" r="5.904" transform="translate(578.648 363.476)" fill="#3f3d56"/>
      <path id="Path_203" data-name="Path 203" d="M692.611,401.051c4.132-18.751-9.3-37.649-29.994-42.209s-40.824,6.943-44.956,25.694,9.6,25.624,30.292,30.185S688.479,419.8,692.611,401.051Z" transform="translate(-56.578 -66.889)" fill="#c7a47a"/>
      <ellipse id="Ellipse_125" data-name="Ellipse 125" cx="25.91" cy="8.134" rx="25.91" ry="8.134" transform="translate(617.312 362.113) rotate(-25.535)" fill="#2f2e41"/>
      <path id="Path_204" data-name="Path 204" d="M667.985,468.008c.014,5.072-13.017,15.124-27.508,15.164s-28.118-14.2-28.132-19.272,13.59.946,28.081.905S667.971,462.936,667.985,468.008Z" transform="translate(-56.578 -66.889)" fill="#fff"/>
      <circle id="Ellipse_126" data-name="Ellipse 126" cx="72.319" cy="72.319" r="72.319" transform="translate(529.363 235.133)" fill="#c7a47a" opacity="0.4"/>
      <circle id="Ellipse_127" data-name="Ellipse 127" cx="51.821" cy="51.821" r="51.821" transform="translate(73.078 176.841)" fill="#2f2e41"/>
      <rect id="Rectangle_203" data-name="Rectangle 203" width="15.743" height="28.207" transform="matrix(0.984, 0.178, -0.178, 0.984, 94.419, 264.476)" fill="#2f2e41"/>
      <rect id="Rectangle_204" data-name="Rectangle 204" width="15.743" height="28.207" transform="matrix(0.984, 0.178, -0.178, 0.984, 125.402, 270.085)" fill="#2f2e41"/>
      <ellipse id="Ellipse_128" data-name="Ellipse 128" cx="4.92" cy="13.119" rx="4.92" ry="13.119" transform="matrix(0.646, -0.763, 0.763, 0.646, 117.632, 298.005)" fill="#2f2e41"/>
      <ellipse id="Ellipse_129" data-name="Ellipse 129" cx="4.92" cy="13.119" rx="4.92" ry="13.119" transform="matrix(0.646, -0.763, 0.763, 0.646, 87.295, 292.513)" fill="#2f2e41"/>
      <circle id="Ellipse_130" data-name="Ellipse 130" cx="17.711" cy="17.711" r="17.711" transform="translate(110.816 198.276)" fill="#fff"/>
      <circle id="Ellipse_131" data-name="Ellipse 131" cx="5.904" cy="5.904" r="5.904" transform="translate(129.902 203.735)" fill="#3f3d56"/>
      <path id="Path_205" data-name="Path 205" d="M140.6,239.176c-.779-19.185,15.755-35.435,36.931-36.295s38.974,13.995,39.753,33.18-13.941,23.544-35.116,24.4S141.377,258.361,140.6,239.176Z" transform="translate(-56.578 -66.889)" fill="#c7a47a"/>
      <ellipse id="Ellipse_132" data-name="Ellipse 132" cx="25.911" cy="8.134" rx="25.911" ry="8.134" transform="translate(145.674 217.082) rotate(-12.91)" fill="#2f2e41"/>
      <ellipse id="Ellipse_133" data-name="Ellipse 133" cx="25.911" cy="8.134" rx="25.911" ry="8.134" transform="translate(43.952 233.998) rotate(-12.91)" fill="#2f2e41"/>
      <path id="Path_206" data-name="Path 206" d="M167.244,315.974a11.807,11.807,0,1,0,23.237,4.207c1.162-6.417-3.8-8.687-10.216-9.849S168.406,309.557,167.244,315.974Z" transform="translate(-56.578 -66.889)" fill="#fff"/>
      <rect id="Rectangle_205" data-name="Rectangle 205" width="48.541" height="43.294" transform="translate(200.421 172.627) rotate(16.689)" fill="#3f3d56"/>
      <path id="Path_207" data-name="Path 207" d="M261.808,285.966l-.61-.2c.217-.675,5.4-16.57,13.03-19.106l.2.608C267.108,269.705,261.86,285.8,261.808,285.966Z" transform="translate(-56.578 -66.889)" fill="#c7a47a"/>
      <circle id="Ellipse_134" data-name="Ellipse 134" cx="3.202" cy="3.202" r="3.202" transform="translate(218.671 194.276)" fill="#c7a47a"/>
      <path id="Path_208" data-name="Path 208" d="M274.584,275.011a9.97,9.97,0,0,1-4.991-1.264,9.085,9.085,0,0,1,9.867-.387A9.969,9.969,0,0,1,274.584,275.011Z" transform="translate(-56.578 -66.889)" fill="#c7a47a"/>
    </g>
  </g>
</svg>
