<svg xmlns="http://www.w3.org/2000/svg" xmlns:xlink="http://www.w3.org/1999/xlink" width="351.232" height="420.189" viewBox="0 0 351.232 420.189">
  <defs>
    <clipPath id="clip-path">
      <rect width="227.242" height="180.124" fill="none"/>
    </clipPath>
  </defs>
  <g id="mac" transform="translate(-841.608 -215.708)">
    <g id="Group_1" data-name="Group 1" transform="translate(841.608 215.708)">
      <path id="Path_4" data-name="Path 4" d="M781.836,695.72v37.527l259.576,39.974V702.655Z" transform="translate(-766.243 -353.032)" fill="#6d6983"/>
      <path id="Path_2" data-name="Path 2" d="M764.726,333.277V658.132l17.421,6.776L900.913,687.6l132.335,14.86,12.066-358.844Z" transform="translate(-764.726 -320.886)" fill="#b4e6fd"/>
      <path id="Path_5" data-name="Path 5" d="M764.726,327.456,856.9,319.68h77.252v7.777h176.07v5.676l-64.7,7.423Z" transform="translate(-764.726 -319.68)" fill="#a1c5d6"/>
      <path id="Path_3" data-name="Path 3" d="M1071.8,352.294l61.8-17.112,8.843,31.733L1133.6,643.81l-48.991,65.945-5.946-7.9V668.262h-15.3Z" transform="translate(-791.214 -321.055)" fill="#4b6bb1"/>
      <path id="Path_7" data-name="Path 7" d="M788.173,368.5V557.367l224.179,22.746,6.538-199.093Z" transform="translate(-766.806 -324.01)" fill="#6d6983" stroke="#54567e" stroke-width="4"/>
      <path id="Path_8" data-name="Path 8" d="M795.178,636.87l99.828,14.493V641.44L795.178,627.9Z" transform="translate(-767.427 -347.017)" fill="#6d6983" stroke="#54567e" stroke-width="3"/>
      <g id="Repeat_Grid_2" data-name="Repeat Grid 2" transform="translate(32.879 57.612)" clip-path="url(#clip-path)">
        <g transform="translate(-32.879 -57.612)">
          <path id="Screen" d="M803,385.159v157.11l205.488,18.77,5.688-169.649Z" transform="translate(-768.121 -325.487)" fill="#54567e" stroke="#54567e" stroke-width="4"/>
        </g>
      </g>
    </g>
  </g>
</svg>
